<svg width="27" height="26" viewBox="0 0 27 26" fill="none" xmlns="http://www.w3.org/2000/svg">
<path fill-rule="evenodd" clip-rule="evenodd" d="M15.2041 22.4173C14.6121 23.0093 14.0801 23.5413 13.5908 24H25.7601C26.0253 24 26.2797 24.1054 26.4672 24.2929C26.6548 24.4804 26.7601 24.7348 26.7601 25C26.7601 25.2652 26.6548 25.5196 26.4672 25.7071C26.2797 25.8946 26.0253 26 25.7601 26H9.76013C9.73524 26 9.7108 25.9991 9.6868 25.9973C8.74946 25.9613 7.95347 25.556 7.17213 24.96C6.38813 24.3627 5.51347 23.488 4.44413 22.4173L4.3428 22.316C3.27213 21.2467 2.39747 20.372 1.80013 19.588C1.17613 18.7693 0.760132 17.9347 0.760132 16.936C0.760132 15.9387 1.17613 15.1027 1.80013 14.284C2.39747 13.5013 3.27213 12.6267 4.3428 11.556L12.3161 3.58267C13.3868 2.512 14.2615 1.63733 15.0441 1.04C15.8628 0.416 16.6975 0 17.6975 0C18.6948 0 19.5295 0.416 20.3481 1.04C21.1321 1.63733 22.0068 2.512 23.0761 3.58267L23.1775 3.684C24.2481 4.75333 25.1228 5.628 25.7201 6.412C26.3441 7.23067 26.7601 8.06533 26.7601 9.064C26.7601 10.0613 26.3441 10.8973 25.7201 11.716C25.1228 12.4987 24.2481 13.3733 23.1775 14.444L15.2041 22.4173ZM13.6801 5.04667C14.8135 3.91333 15.5935 3.136 16.2575 2.63067C16.8975 2.14133 17.3108 2 17.6975 2C18.0815 2 18.4948 2.14133 19.1361 2.63067C19.7988 3.13733 20.5801 3.91333 21.7135 5.04667C22.8468 6.18 23.6241 6.96133 24.1308 7.624C24.6188 8.26533 24.7601 8.67733 24.7601 9.064C24.7601 9.44933 24.6188 9.86267 24.1295 10.5027C23.6228 11.1667 22.8468 11.9467 21.7135 13.08L16.1215 18.6707L8.08947 10.6387L13.6801 5.04667ZM9.82413 24C10.2095 24 10.6228 23.8587 11.2628 23.3693C11.9268 22.8627 12.7068 22.0867 13.8401 20.9533L14.7068 20.0853L6.6748 12.052L5.80813 12.9187C4.6748 14.052 3.89613 14.8333 3.3908 15.4973C2.90147 16.1373 2.76013 16.5507 2.76013 16.9373C2.76013 17.3213 2.90147 17.7347 3.3908 18.376C3.89747 19.0387 4.67347 19.82 5.8068 20.9533C6.94013 22.0867 7.72147 22.864 8.38413 23.3707C9.02547 23.8587 9.43747 24 9.82413 24Z" fill="black"/>
</svg>
