<svg width="29" height="28" viewBox="0 0 29 28" fill="none" xmlns="http://www.w3.org/2000/svg">
<path d="M10.1363 25.843C9.77026 26.2096 9.33557 26.5005 8.85707 26.6991C8.37857 26.8976 7.86565 26.9998 7.34761 27H1.76013V21.4475C1.76013 20.4018 2.17605 19.3979 2.91547 18.6583M10.1363 25.843L2.91547 18.6583M10.1363 25.843L24.5404 11.4303M2.91547 18.6583L17.334 4.22105L19.3934 2.15838C19.7599 1.79129 20.1951 1.50004 20.6742 1.30127C21.1532 1.10251 21.6668 1.00013 22.1854 1C22.7041 0.999866 23.2177 1.10198 23.6968 1.30049C24.176 1.49901 24.6114 1.79003 24.978 2.15694L26.6041 3.78483C27.3443 4.52516 27.7601 5.52925 27.7601 6.57623C27.7601 7.6232 27.3443 8.62729 26.6041 9.36762L24.5404 11.4303M24.5404 11.4303L17.3326 4.22105" stroke="black" stroke-width="2" stroke-linecap="round" stroke-linejoin="round"/>
</svg>
