<svg width="33" height="33" viewBox="0 0 33 33" fill="none" xmlns="http://www.w3.org/2000/svg">
<path d="M33 16.5C33 25.6129 25.6129 33 16.5 33C7.38705 33 0 25.6129 0 16.5C0 7.38705 7.38705 0 16.5 0V3.3C13.3395 3.30036 10.284 4.4347 7.8889 6.49685C5.49381 8.559 3.91812 11.4121 3.44822 14.5374C2.97832 17.6628 3.6454 20.8531 5.32823 23.5284C7.01105 26.2036 9.5979 28.1863 12.6186 29.116C15.6393 30.0457 18.8933 29.8607 21.7891 28.5947C24.685 27.3286 27.0305 25.0656 28.3993 22.2168C29.7681 19.3681 30.0694 16.1228 29.2483 13.0708C28.4272 10.0188 26.5384 7.36268 23.925 5.58525V9.9H20.625V0H30.525V3.3H26.4C28.4502 4.83604 30.1141 6.82879 31.2598 9.1201C32.4054 11.4114 33.0013 13.9382 33 16.5Z" fill="#1D242B"/>
</svg>
